<svg id="Paths" xmlns="http://www.w3.org/2000/svg" viewBox="0 0 410.89 641.4">
    <defs>
    <style>.cls-1{fill:none;stroke:#231f20;stroke-miterlimit:10;}</style>
    </defs>
    <path class="cls-1" d="M417.24,422.16c-1-.48,11-2.64,11-2.64l5.52-3.12c-1.44,5-10.32,12.72-10.32,12.72s-11.52,4.8-9.12-4.56,1-13.68,1-13.68l.48-5.76c-17.28,23-4.08,20.88-4.08,23.28s-13.2,19-13.2,19l23.28,5c-13.2,9.84-37.92,6-28.8-1.92S402.36,437,402.36,437c1.2-10.56-3.12-11-3.12-11v-9.6l-1.44,10.08C387.48,437,392,448.08,392,448.08l-2.16,3.36c-6.24,4.56-15.6,12.24-15.6,12.24l8.16,1,10.32,5,6.48,1.2v1.92c-26.16,15.12-35.76-4.56-35.76-4.56l11.28-6.48,5-4.56,3.84-14.64-.72-9.12,2.64-10.32h-1.44c-26.64,15.84-18,40.56-18,40.56l-4.56,2.88c-12.24,5-16.08,11-16.08,11s2.4-.24,11.52,4.32,14.88,3.6,14.88,3.6l-4.08,2.4c-15.36,7.92-36.24-4.32-26.4-9.6a17.36,17.36,0,0,0,1.6-1c8.89-5.87,14.19-18.83,13.28-24.72-1-6.24,6.72-12,6.72-12-16.32,15.84-25.2,37.44-25.2,37.44-4.8.72-24.72,17.28-24.72,17.28l-1.2,7.92s8.64-8.4,47.52,0c0,0,9.84,2.16,16.56-3.12S356.52,539.28,320,554.64a11.52,11.52,0,0,1-6-7.44l-18.24-6.48s-15.12,4.56-16.08,3.6c0,0,51.36-12,91.68-39.36" transform="translate(-79.91 -105.37)"/>
    <path class="cls-1" d="M135.24,343.68a21.36,21.36,0,0,1-2.16-3.6c-.72-1.68-3.12-2.16-6.72-2.16s-9.84-5-8.16-3.84,4.8,6,8.16,14.16,8.64,7.92,13.32,7.68,10.92-7,7.8-12-6.24-16.56-6.24-16.56c-9.84,29-3.84,28.08-3.84,28.08s-1.92,25.44-2.88,20.64-6.24-8.16-8.88-9.36-8.16,0-11.76,0-12-5.76-12-5.76a25.87,25.87,0,0,0,4.8,6c3.12,2.88,10.08,8.88,10.08,8.88s4.8,8.64,11.52,9.84,8.16-1.68,8.16-1.68,3.6,4.32,9.36-1.92,7.2-16.8,7.2-16.8l2.64-9.84-8.88,12c-11,6.24-9.84,11-11.28,13.44s2.4,17.52,2.4,17.52,4.08,9.12.72,7-8.4-1.44-12-.48-14.4-.24-14.4-.24,15.12,9.36,21.12,13.2,12-5.28,12-5.28c13.68-5.28,10.8-16.08,10.8-16.08l-3.12-18s3.36,2.88-4.08,13.44-7,15.6-7,15.6c.72,10.56,17.52,24,17.52,24s-4.8-7-1.56-14.16,2.28-15.84,2.28-15.84,9.84,9.36,11.52,22.8-6.48,20.16-17.28,17.76-16.08-2.64-16.08-2.64c20.88-12.72,25.68-3.6,25.68-3.6L177.48,449s-6.72-14.64,6-31.44,4.32-39.84,4.32-39.84S229.08,400.08,226,458.4c0,0-7.68,10.08-8.4,13.68s-2.38-12.48-8.51-21.84c0,0-.13-26.88-16.45-65.28" transform="translate(-79.91 -105.37)"/>
    <path class="cls-1" d="M252.72,697.2c-4.52-1-13.32-2.16-19.8-11.88s-16.56,0-16.56,0c-22.68,4.32-34.2-21.24-34.2-21.24s-4-10.8-6.12-15.84,18.36-42.12,18.36-41-10.8,11.88-10.8,11.88-6.12-1.44-14.4,6.84-14.76,4-14.76,4c-20.88,12.24-18,3.24-18,3.24S131.76,623,124.2,623a20,20,0,0,1-12.6-4.68s-6.12-6.84-13.32-6.84a29.27,29.27,0,0,1-13-3.24s-9.72-2.16-1.8-6.48,12.6-21.24,13.32-25,13-7,13-7l-.36-3.6c-.36-17.28,13-19.8,13-19.8s14-3.24,17.28-7.56,13-4.32,13-4.32l14.4,6.84,16.2,5L156,533.76l-16.33-7.56s-7.92-4.68-10.8-19.8-13.68-25.92-14.4-27-8.28-13.68-8.28-13.68-3.24-6.48,5.76-5.4,10.44.84,18-.12,9.72-8.16,9.72-8.16,10.44-5,20.52,4.32c0,0,6.48,1.8,13.32-3.6S187.2,450.6,189,454.2c0,0,9-12.24,18.72.72s6.84,20.88,6.12,26.28-4,6.72-.72,14.16-6.12,7.44-3.6,16.44A79.64,79.64,0,0,1,212,530.52s3.6-14.1.36-17.28,4.32-12.6,4.32-12.6-.26-7.88-2.16-11.52,10.8-33.48,22.68-35.28,24.84,5.4,24.84,5.4,14-4.68,17.28,13.32l6.84-2.16s-.16,3.24,11.44,9.36l2.6,7.2s5,.17,7.56,10.7l3.6,12s-5.76,15.48-16.2,21.24A84.73,84.73,0,0,1,275,538.8s2.16,16.92-22.32,24.84c0,0,10.49-.45,22.68-14.76,0,0,15.12-3.6,17.28-4.32s18.72,4.68,18.72,4.68,3.6,13,23.4,14.4c0,0,7.56-1.44-1.8,7.56,0,0,7.56,24.12-5.76,24.84,0,0-4,10.08-2.16,15.48s-5,14-9,14.76l1.44,4.68s-9.36,8.64-17.28,5.4c0,0-16.92,10.81-23.76.73s-21.6-18.73-21.6-18.73-22.68-5-24.48-14.4c0,0,5.29,9.83,23,18.36s24.12,20.88,24.12,20.88-4.68.36-2.16,14.76.36,35.28-27.72,44.28H239s-13.68,5.4-15.84,0c0,0-20.88-2.88-25.56-9.36,0,0-16.56-11.16-17.28-25.56l-4-13s5.88,16.44-4.68,28-26.88,40.08-41.28,42.24c0,0,8.64-16.8,2.4-42.72s-9.12-36.72.48-44.4c0,0-.6,7.68,20.88-3.6,0,0,7.65,4,17.64-5.4,0,0,5.28-5.16,6-5S154.2,645.36,148,679s-12.48,39.12-12.48,39.12" transform="translate(-79.91 -105.37)"/>
    <path class="cls-1" d="M333.36,327.48l.72,6.48c-5.76,17.28-1.08,24.48-1.08,24.48,11.52,11.88,10.44,16.56,13.68,32.76S365,408.48,370.8,398s15.12-11.34,15.12-11.34c22.32-5.22,21.24-26.82,21.24-26.82,4.32-2.52,10.44-10.44,10.44-10.44a48.22,48.22,0,0,1-5-9.72c-1.8-5-5-5.76-5-5.76l-27-6.6c58.68,5.64,58.68-21.12,58.68-21.12s-9-12.6-5.4-14.4,11.88-15.84,8.06-17.64-5.18-9.72-5.18-9.72c16.2-33.48-10.8-35.64-10.8-35.64s-33.12,8.64-41.76,28.8-25.56,26.28-25.56,26.28,12.24-6.84,23-26.28-1.42-29.88-1.42-29.88c6.84-36-13.32-17.28-13.32-17.28s-3.6-19.08-10.44-11.16-18,2.52-18,2.52c-12.6-14-23.4,0-23.4,0s2.16,6.84-5.76,5.4-16.2,16.2-16.2,16.2c-4.32.72-7.8,23-1.8,24.48s28.44,50,28.44,50c-18.36-35.64-15.48-24.48-26.64-43.2s-48.24-21.6-48.6-8.64-5,13.32-5,13.32c-13-4.68-7.92,11.16-7.92,11.16l-4,9.72c-17.64,28.08,1.08,32,1.08,32-5.4,11.88,7.92,22.68,7.92,22.68,0,18,6.84,14,10.8,16.92s28.08-2.16,34.92-11.16,28.44-17.64,28.44-17.64l-4,1.8c-20.88,16.56-32.4,39.24-41.76,49.32s-31,7.2-38.52,5.76-13.68,10.44-13.68,10.44,15.84-6.48,20.16-.36S243,392.64,243,392.64c1.44,4.68,7.56,4.32,7.56,4.32l-4,8.16s15.12,16.32,24,14.16,10.56,1.66,10.56,1.66c11.52,9.59,23-9.94,23-9.94s1.8-10.44,18.72-15.48,17.64-23.4,17.64-23.4c.37,13.68-2.58,21.61-5.52,26.4-.83,1.35-3,4.62-7.8,12.24-2.14,3.38-3.88,6.17-5,8a43.35,43.35,0,0,0-2.34,10.38,48.67,48.67,0,0,0,4.5,25.14,46.61,46.61,0,0,1,2.4,22.8s25-54.48,27.12-67.2l1.44-3.84s12.2,3.35,17-6.1,7.92-8.3,7.92-8.3,1.44,23.76-11,34.08-22.32,26.16-22.32,26.16L331.08,472.6" transform="translate(-79.91 -105.37)"/>
    <path class="cls-1" d="M468.36,172s-2.85,3.82,3.24-.36,17.64-5,17.64-5c-8.64-5.4-23-6.12-23-6.12-10.8,7.56-1.44,13-1.44,13,2.88,9.36,6.48,18.36,6.48,18.36-30.6-16.56-11.88-22.32-11.88-22.32-6.12-7.56-20.88-20-20.88-20s2.88-.54,2.88,7,6.12,18.36,6.12,18.36c-9.36-2.16-16.92-11.52-16.92-11.52-11.88-15.84,5-17.64,5-17.64s9.72,4.32,14.76-2.88,19.08-12.6,19.08-12.6-8.28,2.52-23.76.72-12.24,13.32-12.24,13.32l-21.6-11.88c9-2.16,9-8.28,10.44-11.52a98.5,98.5,0,0,1,5.4-9.36l-10.08,7.2s-11.52.72-13.68,6.12,2.88,6.48,2.88,6.48a20.91,20.91,0,0,1,2.88,3.15,12.84,12.84,0,0,1,2.52,5.49c.72,4.68,9.72,11.88,9.72,11.88s3.24,4.32-15.48-5.4-4-16.2-4-16.2c-12.6-2.52-25.2,2.16-25.2,2.16s6.48.72,8.28,8.28,11.52,10.8,11.52,10.8c-12.6,1.44-21.24-4.32-25.92-5.76s-8.64-6.84-1.44-11.16c2.07-1.24,3.93-2.24,5.5-3.24,3.91-2.47,6.07-4.9,5.3-10.8-1.08-8.28,5.4-14.76,5.4-14.76-4.32,6.12-14.76,11.52-14.76,11.52-15.12,11.88-5.76,17.28-5.76,17.28-10.8,1.8-20.52,11.16-20.52,11.16l9.72,2.16c11.88,6.85,13.68,5.76,13.68,5.76-2.16-.72-6.48,4-18.36,4.68s-14-6.48-14-6.48c-14.76,4-4-28.44-4-28.44,13.32,15.48,13.68,25.2,7.92,29.16s-12,22.14-12,22.14a10.11,10.11,0,0,0-6-8.46c-5.76-2.52-16.2-10.08-16.2-10.08C310,157.92,311.4,173,311.4,173s-2.52,7.56,13.68,13.32,28.08-10.51,28.08-10.51l-7.92,2.23C324,171.6,324,181.32,324,181.32l-3.24,11.88s-7.68,4.32-7.44,6.72-3.12,7-4.08,3.12.48-29.76-75.36-42.24c0,0,13,4.8,17.28,19s6,37.92,6,37.92,3,12.64,9.6,17.76,20.16,9.36,20.16,9.36a27.61,27.61,0,0,1,4.32-24.48s-18.48-38.16-45.84-54" transform="translate(-79.91 -105.37)"/>
    <path class="cls-1" d="M276.12,355.68s-13.68,11.28-19,11-14.4-9.84-20.4-12,17.52-3.12,21.84,5-9.6,9.36-9.6,9.36-7.19,7.31-5.76,9.84c0,0,10.32.24,13.92-4.56s5.76-8.31,5.76-8.31-19.68,4.47-31.44-1.77-14.4,1.77-14.4,1.77S213,378.48,209.64,379c0,0,20.88.72,22.32-11.52l.24-6.48s2.4-3.6-2.64-11-19.92-9.36-19.92-9.36,7.92,6.72,11.76,16.08l1.92,3.12s-11.76-4.08-16.56-3.12-9.84-4.8-12.72,12.72c0,0-.48,5-2.4,6.72,0,0,6-5,10.8-6s6.64-9.51,3.6-11.52c0,0,8.16-7.68.72-11.76S200,341,184.44,340.56c0,0-4.32,1,3.84,3.84l3.12,2.16s3.49,6.85,6.48,8.4c0,0-8.88,1.93-12,4.8-1,.92-3,.91-5.38.48a60.26,60.26,0,0,1-11.42-3.84s9.6-5.52,14.4-3.6,4.8,5.52,3.36,8.64c0,0,4.8,5-7.44,11.52s-6.72,3.84-6.72,3.84,3.84-5.28,3.6-8.16,2.64-6.24,2.64-6.24" transform="translate(-79.91 -105.37)"/>
    <path class="cls-1" d="M327,604.32s5.52,13.44,5.76,23-13,16.56-13,16.56-5.52,5.28-5,6.48c0,0,4.08-11,3.84-12.72s5-15.36,12-12c0,0,7.44-4.8,12.24-.48s21.6,10.8,21.6,10.8-13.2-2.88-19.44,1.2-11.76-5-11.76-5l-1.92,28.56s-4.32,13.68,20.16,12c0,0,7.92-2.35,13,.14s-12.48-6.38-14.88-8.54-7-10.08-14.16-7.92-6,3.36-6,3.36-3.84-6.48-8.4-1.44-9.6,19.2-8.88,25.2l-.07,2.88s2.23-11,11.11-13.92l7.44-4.8s.24,16.08,2.64,21.6,3.12,13.2-6,18-13.82,6-15.19,11.28l7-21.36s6-9.84,11.76-6.72c0,0,10.32-10.08,19.2.48s17,10.56,17,10.56l-10.32-1.68s-4.56,1-5.28-.72c0,0-11,6-15.12,1,0,0,0,9.12,9.12,16.56s10.56,8.88,30,4.56l-6-2.16s-11.52-6.72-20.64-4.32-11.35,11.28-5.07,21.12c0,0,1.71,5.52,3.15,9.12s4.32-1,3.6-5.28a40.13,40.13,0,0,1,0-9.84l1-7" transform="translate(-79.91 -105.37)"/>
</svg>